<?xml version="1.0" encoding="UTF-8"?>
<!DOCTYPE svg PUBLIC "-//W3C//DTD SVG 1.1//EN" "http://www.w3.org/Graphics/SVG/1.1/DTD/svg11.dtd">
<!-- Creator: CorelDRAW 2017 -->
<svg xmlns="http://www.w3.org/2000/svg" xml:space="preserve" width="2950px" height="2963px" version="1.1" style="shape-rendering:geometricPrecision; text-rendering:geometricPrecision; image-rendering:optimizeQuality; fill-rule:evenodd; clip-rule:evenodd"
viewBox="0 0 2950 2962.5"
 xmlns:xlink="http://www.w3.org/1999/xlink">
 <defs>
  <style type="text/css">
   <![CDATA[
    .fil0 {fill:#DD4545}
    .fil1 {fill:#004673;fill-rule:nonzero}
   ]]>
  </style>
 </defs>
 <g id="Слой_x0020_1">
  <metadata id="CorelCorpID_0Corel-Layer"/>
  <polygon class="fil0" points="687.98,1607 600.34,1607 619.57,1575.72 707.22,1575.72 "/>
  <path class="fil1" d="M1802.03 1559.02c-1.58,40.5 -6.33,64.03 -24.88,64.03 -2.27,0 -4.3,-0.23 -6.57,-0.91l-2.26 31c6.79,1.59 12.67,2.49 18.1,2.49 37.11,0 45.93,-35.75 47.97,-97.97l1.13 -33.03 54.3 0 0 128.51 36.21 0 0 -158.38 -121.73 0 -2.27 64.26z"/>
  <path class="fil1" d="M920.64 1575.58l-62.26 0 0.57 -49.14 62.27 0c15.76,0 21.81,5.53 23.49,15.92 3.48,21.47 -3.36,33.22 -24.07,33.22zm7.6 -80.96l-106.36 0 0.86 159.23 34.95 0.84 0.45 -47.3 69.44 0c38.46,0 54.28,-16.12 54.9,-56.72 0.01,-6.93 -0.35,-13.18 -1.24,-18.7 -4.33,-26.75 -20.43,-37.35 -53,-37.35z"/>
  <polygon class="fil1" points="1188.23,1654.7 1347.22,1654.7 1347.22,1622.04 1219.14,1622.04 1219.14,1590.04 1315.42,1590.04 1315.42,1558.68 1219.14,1558.68 1219.14,1525.77 1347.39,1525.77 1347.39,1493.89 1188.23,1493.89 "/>
  <polygon class="fil1" points="1498.03,1557.59 1402.07,1557.59 1402.07,1494.62 1370.17,1494.62 1370.17,1652.93 1402.07,1652.93 1402.07,1589.92 1498.03,1589.92 1498.03,1652.93 1529.96,1652.93 1529.96,1494.62 1498.03,1494.62 "/>
  <polygon class="fil1" points="607.57,1654.56 648.13,1654.56 669.26,1607 629.9,1607 "/>
  <polygon class="fil1" points="683.81,1494.25 703.11,1530.66 757.85,1654.56 799.39,1654.56 722.9,1494.25 "/>
  <polygon class="fil1" points="1545.99,1607 1576.01,1607 1553.23,1654.56 1593.79,1654.56 1615.41,1607 1633.63,1607 1652.88,1575.72 1565.23,1575.72 "/>
  <polygon class="fil1" points="1629.46,1494.25 1648.77,1530.66 1703.51,1654.56 1745.04,1654.56 1668.56,1494.25 "/>
  <polygon class="fil1" points="2011.71,1552.68 2011.71,1520.57 1980.03,1520.57 1980.03,1552.68 1947.92,1552.68 1947.92,1584.37 1980.03,1584.37 1980.03,1616.48 2011.71,1616.48 2011.71,1584.37 2043.83,1584.37 2043.83,1552.68 "/>
  <path class="fil1" d="M1165.11 1549.45l0.12 -19.42c0.12,-19.42 -15.52,-35.27 -34.95,-35.4l-88.71 -0.62c-19.59,-0.13 -35.57,15.68 -35.64,35.28l-0.28 89.07c-0.06,19.58 15.8,35.5 35.39,35.5l88.99 0c19.53,0 35.32,-15.89 35.2,-35.4l-0.12 -19.18 -31.96 0 0 11.69c0,6.03 -4.89,10.92 -10.93,10.92l-74.74 0c-5.22,0 -9.46,-4.23 -9.46,-9.46l0 -76.13c0,-5.23 4.24,-9.46 9.46,-9.46l74.74 0c6.04,0 10.93,4.89 10.93,10.92l0 11.69 31.96 0z"/>
  <path class="fil1" d="M663.79 1537.86c-9.06,0 -16.41,7.34 -16.41,16.41 0,9.06 7.35,16.4 16.41,16.4 9.06,0 16.41,-7.34 16.41,-16.4 0,-9.07 -7.35,-16.41 -16.41,-16.41z"/>
  <path class="fil1" d="M1613.04 1570.67c9.06,0 16.41,-7.34 16.41,-16.41 0,-9.06 -7.35,-16.4 -16.41,-16.4 -9.06,0 -16.41,7.34 -16.41,16.4 0,9.07 7.35,16.41 16.41,16.41z"/>
 </g>
</svg>
