<?xml version="1.0"?>
<svg width="2950" height="2962.5" xmlns="http://www.w3.org/2000/svg" xmlns:svg="http://www.w3.org/2000/svg" clip-rule="evenodd" fill-rule="evenodd" version="1.1" xml:space="preserve">
 <defs>
  <style type="text/css">
   <![CDATA[
    .fil0 {fill:#DD4545}
    .fil1 {fill:#004673;fill-rule:nonzero}
   ]]>
  </style>
 </defs>
 <g class="layer">
  <title>Layer 1</title>
  <g id="Слой_x0020_1" transform="translate(12.34 12.89) scale(1.32144 1.32144) translate(-12.34 -12.89)">
   <metadata id="CorelCorpID_0Corel-Layer"/>
   <polygon class="fil0" id="svg_1" points="128.15124761581683,162.3584356559586 12.34002685546875,162.3584356559586 37.75135378417326,121.0236536423181 153.5758018812412,121.0236536423181 "/>
   <path class="fil1" d="m1600.31,98.96c-2.09,53.52 -8.36,84.61 -32.88,84.61c-3,0 -5.68,-0.3 -8.68,-1.2l-2.99,40.96c8.97,2.1 16.74,3.29 23.92,3.29c49.04,0 60.69,-47.24 63.39,-129.46l1.49,-43.65l71.75,0l0,169.82l47.85,0l0,-209.29l-160.86,0l-3,84.92z" id="svg_2"/>
   <path class="fil1" d="m435.6,120.84l-82.27,0l0.75,-64.94l82.29,0c20.83,0 28.82,7.31 31.04,21.04c4.6,28.37 -4.44,43.9 -31.81,43.9zm10.04,-106.98l-140.55,0l1.14,210.41l46.18,1.11l0.59,-62.5l91.76,0c50.82,0 71.73,-21.3 72.55,-74.95c0.01,-9.16 -0.46,-17.42 -1.64,-24.71c-5.72,-35.35 -27,-49.36 -70.04,-49.36z" id="svg_3"/>
   <polygon class="fil1" id="svg_4" points="789.2032084715393,225.3912117776781 999.2994499525303,225.3912117776781 999.2994499525303,182.2329930045089 830.0490629534979,182.2329930045089 830.0490629534979,139.94681060094445 957.2776529743787,139.94681060094445 957.2776529743787,98.50637120252941 830.0490629534979,98.50637120252941 830.0490629534979,55.01763032034796 999.5241533677836,55.01763032034796 999.5241533677836,12.8900146484375 789.2032084715393,12.8900146484375 "/>
   <polygon class="fil1" id="svg_5" points="1198.5863763896414,97.06588197193923 1071.780577216843,97.06588197193923 1071.780577216843,13.854642375081312 1029.6266681804773,13.854642375081312 1029.6266681804773,223.05239281302784 1071.780577216843,223.05239281302784 1071.780577216843,139.78824386929045 1198.5863763896414,139.78824386929045 1198.5863763896414,223.05239281302784 1240.7799674361668,223.05239281302784 1240.7799674361668,13.854642375081312 1198.5863763896414,13.854642375081312 "/>
   <polygon class="fil1" id="svg_6" points="21.89403538283659,225.20635168156878 75.49176835317485,225.20635168156878 103.41386962388788,162.3584356559586 51.401884624581726,162.3584356559586 "/>
   <polygon class="fil1" id="svg_7" points="122.64085205461015,13.365714843399473 148.14468968586152,61.47950692597078 220.4804775552402,225.20635168156878 275.3732797067423,225.20635168156878 174.29610223494092,13.365714843399473 "/>
   <polygon class="fil1" id="svg_8" points="1261.9627406481086,162.3584356559586 1301.63249132489,162.3584356559586 1271.5299765121963,225.20635168156878 1325.1277901370268,225.20635168156878 1353.6973856710756,162.3584356559586 1377.7740420629489,162.3584356559586 1403.211823665093,121.0236536423181 1287.387294913533,121.0236536423181 "/>
   <polygon class="fil1" id="svg_9" points="1372.26356584725,13.365714843399473 1397.7807114697134,61.47950692597078 1470.1164993390921,225.20635168156878 1524.9960741538744,225.20635168156878 1423.9321240187928,13.365714843399473 "/>
   <polygon class="fil1" id="svg_10" points="1877.3852290898285,90.57771200186107 1877.3852290898285,48.146028894378105 1835.521998843331,48.146028894378105 1835.521998843331,90.57771200186107 1793.0904770448324,90.57771200186107 1793.0904770448324,132.4541695850785 1835.521998843331,132.4541695850785 1835.521998843331,174.88569138357707 1877.3852290898285,174.88569138357707 1877.3852290898285,132.4541695850785 1919.829978225047,132.4541695850785 1919.829978225047,90.57771200186107 "/>
   <path class="fil1" d="m758.65,86.31l0.16,-25.66c0.16,-25.66 -20.51,-46.61 -46.18,-46.78l-117.23,-0.82c-25.89,-0.17 -47,20.72 -47.1,46.62l-0.37,117.7c-0.08,25.87 20.88,46.91 46.77,46.91l117.6,0c25.81,0 46.67,-21 46.51,-46.78l-0.16,-25.35l-42.23,0l0,15.45c0,7.97 -6.46,14.43 -14.44,14.43l-98.76,0c-6.9,0 -12.5,-5.59 -12.5,-12.5l0,-100.6c0,-6.91 5.6,-12.5 12.5,-12.5l98.76,0c7.98,0 14.44,6.46 14.44,14.43l0,15.45l42.23,0z" id="svg_11"/>
   <path class="fil1" d="m96.19,70.99c-11.97,0 -21.68,9.7 -21.68,21.68c0,11.97 9.71,21.67 21.68,21.67c11.97,0 21.68,-9.7 21.68,-21.67c0,-11.99 -9.71,-21.68 -21.68,-21.68z" id="svg_12"/>
   <path class="fil1" d="m1350.57,114.35c11.97,0 21.68,-9.7 21.68,-21.68c0,-11.97 -9.71,-21.67 -21.68,-21.67c-11.97,0 -21.68,9.7 -21.68,21.67c0,11.99 9.71,21.68 21.68,21.68z" id="svg_13"/>
  </g>
 </g>
</svg>