<?xml version="1.0"?>
<svg width="2950" height="2962.5" xmlns="http://www.w3.org/2000/svg" xmlns:svg="http://www.w3.org/2000/svg" clip-rule="evenodd" fill-rule="evenodd" version="1.1" xml:space="preserve">
 <defs>
  <style type="text/css">
   <![CDATA[
    .fil0 {fill:#DD4545}
    .fil1 {fill:#004673;fill-rule:nonzero}
   ]]>
  </style>
 </defs>
 <g class="layer">
  <title>Layer 1</title>
  <g id="Слой_x0020_1" transform="matrix(0.847678 0 0 0.892621 -48.1987 -65.9558)">
   <metadata id="CorelCorpID_0Corel-Layer"/>
   <polygon class="fil0" id="svg_1" points="225.09273719787598,273.31722927093506 146.8634433746338,273.31722927093506 164.02852821350098,245.39599514007568 242.2667636871338,245.39599514007568 "/>
   <path class="fil1" d="m1219.52,230.49c-1.41,36.15 -5.65,57.15 -22.21,57.15c-2.03,0 -3.84,-0.21 -5.86,-0.81l-2.02,27.67c6.06,1.42 11.31,2.22 16.16,2.22c33.13,0 41,-31.91 42.82,-87.45l1.01,-29.48l48.47,0l0,114.71l32.32,0l0,-141.37l-108.66,0l-2.03,57.36z" id="svg_2"/>
   <path class="fil1" d="m432.77,245.27l-55.57,0l0.51,-43.86l55.58,0c14.07,0 19.47,4.94 20.97,14.21c3.11,19.16 -3,29.65 -21.49,29.65zm6.78,-72.27l-94.94,0l0.77,142.13l31.2,0.75l0.4,-42.22l61.98,0c34.33,0 48.45,-14.39 49,-50.63c0.01,-6.19 -0.31,-11.76 -1.11,-16.69c-3.87,-23.88 -18.24,-33.34 -47.31,-33.34z" id="svg_3"/>
   <polygon class="fil1" id="svg_4" points="671.6265811920166,315.89520168304443 813.5444278717041,315.89520168304443 813.5444278717041,286.74227809906006 699.2175235748291,286.74227809906006 699.2175235748291,258.17840480804443 785.1591129302979,258.17840480804443 785.1591129302979,230.18580532073975 699.2175235748291,230.18580532073975 699.2175235748291,200.80961513519287 813.6962223052979,200.80961513519287 813.6962223052979,172.35284328460693 671.6265811920166,172.35284328460693 "/>
   <polygon class="fil1" id="svg_5" points="948.1606998443604,229.21276760101318 862.5046939849854,229.21276760101318 862.5046939849854,173.0044240951538 834.0301456451416,173.0044240951538 834.0301456451416,314.31536769866943 862.5046939849854,314.31536769866943 862.5046939849854,258.07130336761475 948.1606998443604,258.07130336761475 948.1606998443604,314.31536769866943 976.6620426177979,314.31536769866943 976.6620426177979,173.0044240951538 948.1606998443604,173.0044240951538 "/>
   <polygon class="fil1" id="svg_6" points="153.31707191467285,315.77035427093506 189.5217990875244,315.77035427093506 208.38289833068848,273.31722927093506 173.2493381500244,273.31722927093506 "/>
   <polygon class="fil1" id="svg_7" points="221.3705234527588,172.67416286468506 238.59810829162598,205.17452907562256 287.4601993560791,315.77035427093506 324.5396976470947,315.77035427093506 256.26311683654785,172.67416286468506 "/>
   <polygon class="fil1" id="svg_8" points="990.9708194732666,273.31722927093506 1017.7673282623291,273.31722927093506 997.4333438873291,315.77035427093506 1033.6381168365479,315.77035427093506 1052.936517715454,273.31722927093506 1069.2000675201416,273.31722927093506 1086.383050918579,245.39599514007568 1008.1448307037354,245.39599514007568 "/>
   <polygon class="fil1" id="svg_9" points="1065.4778995513916,172.67416286468506 1082.7144718170166,205.17452907562256 1131.5765323638916,315.77035427093506 1168.6470890045166,315.77035427093506 1100.379388809204,172.67416286468506 "/>
   <polygon class="fil1" id="svg_10" points="1406.682367324829,224.83007717132568 1406.682367324829,196.16790676116943 1378.4041690826416,196.16790676116943 1378.4041690826416,224.83007717132568 1349.742181777954,224.83007717132568 1349.742181777954,253.11718654632568 1378.4041690826416,253.11718654632568 1378.4041690826416,281.77926540374756 1406.682367324829,281.77926540374756 1406.682367324829,253.11718654632568 1435.3533878326416,253.11718654632568 1435.3533878326416,224.83007717132568 "/>
   <path class="fil1" d="m650.99,221.95l0.11,-17.33c0.11,-17.33 -13.85,-31.48 -31.2,-31.6l-79.18,-0.55c-17.49,-0.12 -31.75,14 -31.81,31.49l-0.25,79.51c-0.05,17.48 14.1,31.69 31.59,31.69l79.43,0c17.43,0 31.53,-14.18 31.42,-31.6l-0.11,-17.12l-28.53,0l0,10.43c0,5.38 -4.36,9.75 -9.76,9.75l-66.71,0c-4.66,0 -8.44,-3.78 -8.44,-8.44l0,-67.96c0,-4.67 3.78,-8.44 8.44,-8.44l66.71,0c5.39,0 9.76,4.36 9.76,9.75l0,10.43l28.53,0z" id="svg_11"/>
   <path class="fil1" d="m203.5,211.6c-8.09,0 -14.65,6.55 -14.65,14.65c0,8.09 6.56,14.64 14.65,14.64c8.09,0 14.65,-6.55 14.65,-14.64c0,-8.1 -6.56,-14.65 -14.65,-14.65z" id="svg_12"/>
   <path class="fil1" d="m1050.82,240.89c8.09,0 14.65,-6.55 14.65,-14.65c0,-8.09 -6.56,-14.64 -14.65,-14.64c-8.09,0 -14.65,6.55 -14.65,14.64c0,8.1 6.56,14.65 14.65,14.65z" id="svg_13"/>
  </g>
 </g>
</svg>