<svg width="250" height="50" xmlns="http://www.w3.org/2000/svg">

 <g>
  <title>Layer 1</title>
  <g stroke="null">

   <g stroke="null" id="svg_1">
    <metadata stroke="null" id="svg_2"/>
    <polygon stroke="null" fill="#DD4545" points="15.01052474975586,31.167773246765137 0,31.167773246765137 3.2936129570007324,25.810288429260254 18.305850982666016,25.810288429260254 " class="fil0"/>
    <path stroke="null" fill-rule="nonzero" fill="#004673" d="m205.81933,22.95c-0.27061,6.93663 -1.08417,10.96673 -4.26132,10.96673c-0.38879,0 -0.73648,-0.03939 -1.12528,-0.15586l-0.38708,5.30952c1.16296,0.27233 2.17005,0.42647 3.10008,0.42647c6.35601,0 7.86666,-6.12308 8.21606,-16.7798l0.19354,-5.65721l9.30023,0l0,22.01054l6.20186,0l0,-27.12652l-20.84929,0l-0.38879,11.00613z" class="fil1"/>
    <path stroke="null" fill-rule="nonzero" fill="#004673" d="m54.85935,25.78632l-10.66358,0l0.09763,-8.41645l10.66529,0c2.69929,0 3.73551,0.94715 4.02325,2.7267c0.59604,3.67727 -0.57548,5.68975 -4.12259,5.68975zm1.30169,-13.86642l-18.2168,0l0.1473,27.2721l5.98606,0.14387l0.07707,-8.1013l11.89333,0c6.58723,0 9.2968,-2.76095 9.40299,-9.71471c0.00171,-1.18694 -0.05995,-2.2574 -0.21238,-3.20284c-0.74162,-4.5816 -3.49915,-6.39712 -9.07757,-6.39712z" class="fil1"/>
    <polygon stroke="null" fill-rule="nonzero" fill="#004673" points="100.6907958984375,39.3375768661499 127.92179107666016,39.3375768661499 127.92179107666016,33.743754386901855 105.98490142822266,33.743754386901855 105.98490142822266,28.26295757293701 122.47525787353516,28.26295757293701 122.47525787353516,22.89177894592285 105.98490142822266,22.89177894592285 105.98490142822266,17.25511598587036 127.95091247558594,17.25511598587036 127.95091247558594,11.79487133026123 100.6907958984375,11.79487133026123 " class="fil1"/>
    <polygon stroke="null" fill-rule="nonzero" fill="#004673" points="153.7517547607422,22.705074310302734 137.3162078857422,22.705074310302734 137.3162078857422,11.919898644089699 131.85255432128906,11.919898644089699 131.85255432128906,39.034438133239746 137.3162078857422,39.034438133239746 137.3162078857422,28.242403984069824 153.7517547607422,28.242403984069824 153.7517547607422,39.034438133239746 159.22056579589844,39.034438133239746 159.22056579589844,11.919898644089699 153.7517547607422,11.919898644089699 " class="fil1"/>
    <polygon stroke="null" fill-rule="nonzero" fill="#004673" points="1.238314151763916,39.31361675262451 8.185223579406738,39.31361675262451 11.8042631149292,31.167773246765137 5.062885761260986,31.167773246765137 " class="fil1"/>
    <polygon stroke="null" fill-rule="nonzero" fill="#004673" points="14.296311378479004,11.856527801603079 17.60191535949707,18.092652797698975 26.977500915527344,39.31361675262451 34.09226608276367,39.31361675262451 20.991451263427734,11.856527801603079 " class="fil1"/>
    <polygon stroke="null" fill-rule="nonzero" fill="#004673" points="161.96609497070312,31.167773246765137 167.10777282714844,31.167773246765137 163.2061309814453,39.31361675262451 170.15306091308594,39.31361675262451 173.85601806640625,31.167773246765137 176.97665405273438,31.167773246765137 180.27366638183594,25.810288429260254 165.2614288330078,25.810288429260254 " class="fil1"/>
    <polygon stroke="null" fill-rule="nonzero" fill="#004673" points="176.26242065429688,11.856527801603079 179.56973266601562,18.092652797698975 188.9453125,39.31361675262451 196.05836486816406,39.31361675262451 182.9592742919922,11.856527801603079 " class="fil1"/>
    <polygon stroke="null" fill-rule="nonzero" fill="#004673" points="241.7322540283203,21.864129066467285 241.7322540283203,16.364473819732666 236.30628967285156,16.364473819732666 236.30628967285156,21.864129066467285 230.806640625,21.864129066467285 230.806640625,27.291820526123047 236.30628967285156,27.291820526123047 236.30628967285156,32.79145526885986 241.7322540283203,32.79145526885986 241.7322540283203,27.291820526123047 247.23361206054688,27.291820526123047 247.23361206054688,21.864129066467285 " class="fil1"/>
    <path stroke="null" fill-rule="nonzero" fill="#004673" d="m96.73092,21.3109l0.02055,-3.32616c0.02055,-3.32616 -2.65819,-6.04087 -5.98606,-6.06313l-15.1938,-0.10619c-3.35528,-0.02227 -6.09225,2.68559 -6.10424,6.04258l-0.04796,15.25546c-0.01028,3.35356 2.70614,6.08026 6.06142,6.08026l15.24175,0c3.345,0 6.04943,-2.72156 6.02888,-6.06313l-0.02055,-3.28505l-5.47395,0l0,2.0022c0,1.03279 -0.83753,1.87032 -1.87203,1.87032l-12.80109,0c-0.89405,0 -1.62026,-0.72449 -1.62026,-1.62026l0,-13.03916c0,-0.89577 0.72621,-1.62026 1.62026,-1.62026l12.80109,0c1.0345,0 1.87203,0.83753 1.87203,1.87032l0,2.0022l5.47395,0z" class="fil1"/>
    <path stroke="null" fill-rule="nonzero" fill="#004673" d="m10.86739,19.32583c-1.55175,0 -2.81062,1.25716 -2.81062,2.81062c0,1.55175 1.25887,2.80891 2.81062,2.80891c1.55175,0 2.81062,-1.25716 2.81062,-2.80891c0,-1.55346 -1.25887,-2.81062 -2.81062,-2.81062z" class="fil1"/>
    <path stroke="null" fill-rule="nonzero" fill="#004673" d="m173.45009,24.94536c1.55175,0 2.81062,-1.25716 2.81062,-2.81062c0,-1.55175 -1.25887,-2.80891 -2.81062,-2.80891c-1.55175,0 -2.81062,1.25716 -2.81062,2.80891c0,1.55346 1.25887,2.81062 2.81062,2.81062z" class="fil1"/>
   </g>
  </g>
 </g>
</svg>